# xmcd
#
# Track frame offsets:
#	150
#	13391
#	27517
#	40110
#	52695
#	64482
#	77086
#	92783
#	107674
#	120478
#	135175
#	150511
#	166263
#	182905
#	199577
#	214219
#	226179
#	240245
#	255577
#	269854
#
# Disc length: 3802
#
# Revision: 1
# Processed by: cddbd v1.5.1PL0 Copyright (c) Steve Scherf et al.
# Submitted via: CDex 1.51
# Normalized: r0:DSETVAR1
#
DISCID=090ed814
DTITLE=Various Artist - Presenting ... the best of THE BLUES [CD2]
DYEAR=2003
DGENRE=Blues
TTITLE0=Dinah Shore - Dinah's Blues
TTITLE1=Dinah Shore - Doin' what comes Natur'lly
TTITLE2=Dinah Shore - It's So Nice to Have a Man Around the House
TTITLE3=Dinah Shore - Shoo-Fly Pie and Apple Pan Dowdy
TTITLE4=Dinah Shore - Dear Hearts and Gentle People
TTITLE5=Dinah Shore - Memphis Blues
TTITLE6=Ella Fitzgerald - Goodnight, My Love
TTITLE7=Ella Fitzgerald - A Little Bit Later On
TTITLE8=Ella Fitzgerald - A-Ticket, A-Tasket
TTITLE9=Ella Fitzgerald - You Won't Be Satisfied
TTITLE10=Ella Fitzgerald - Into Each Life Some Rain Must Fall
TTITLE11=Ella Fitzgerald - Stairway To The Stars
TTITLE12=Sarah Vaughan - Mean To Me
TTITLE13=Sarah Vaughan - Lover Man
TTITLE14=Sarah Vaughan - A Hundred Years From Today
TTITLE15=Sarah Vaughan - I'm Gonna Sit Right Down And Write Myself A Letter
TTITLE16=Billie Holiday - I Gotta Right To Sing The Blues
TTITLE17=Billie Holiday - The Man I Love
TTITLE18=Billie Holiday - God Bless The Child
TTITLE19=Billie Holiday - Georgia On My Mind
EXTD=YEAR: 2003
EXTT0=
EXTT1=
EXTT2=
EXTT3=
EXTT4=
EXTT5=
EXTT6=
EXTT7=
EXTT8=
EXTT9=
EXTT10=
EXTT11=
EXTT12=
EXTT13=
EXTT14=
EXTT15=
EXTT16=
EXTT17=
EXTT18=
EXTT19=
PLAYORDER=
